<svg xmlns="http://www.w3.org/2000/svg" viewBox="0 0 500 500"><g id="freepik--background-complete--inject-73"><rect y="382.4" width="500" height="0.25" style="fill:#ebebeb"></rect><rect x="416.78" y="398.49" width="33.12" height="0.25" style="fill:#ebebeb"></rect><rect x="322.53" y="401.21" width="8.69" height="0.25" style="fill:#ebebeb"></rect><rect x="396.59" y="389.21" width="19.19" height="0.25" style="fill:#ebebeb"></rect><rect x="52.46" y="390.89" width="43.19" height="0.25" style="fill:#ebebeb"></rect><rect x="104.56" y="390.89" width="6.33" height="0.25" style="fill:#ebebeb"></rect><rect x="131.47" y="395.11" width="93.68" height="0.25" style="fill:#ebebeb"></rect><path d="M237,337.8H43.91a5.71,5.71,0,0,1-5.7-5.71V60.66A5.71,5.71,0,0,1,43.91,55H237a5.71,5.71,0,0,1,5.71,5.71V332.09A5.71,5.71,0,0,1,237,337.8ZM43.91,55.2a5.46,5.46,0,0,0-5.45,5.46V332.09a5.46,5.46,0,0,0,5.45,5.46H237a5.47,5.47,0,0,0,5.46-5.46V60.66A5.47,5.47,0,0,0,237,55.2Z" style="fill:#ebebeb"></path><path d="M453.31,337.8H260.21a5.72,5.72,0,0,1-5.71-5.71V60.66A5.72,5.72,0,0,1,260.21,55h193.1A5.71,5.71,0,0,1,459,60.66V332.09A5.71,5.71,0,0,1,453.31,337.8ZM260.21,55.2a5.47,5.47,0,0,0-5.46,5.46V332.09a5.47,5.47,0,0,0,5.46,5.46h193.1a5.47,5.47,0,0,0,5.46-5.46V60.66a5.47,5.47,0,0,0-5.46-5.46Z" style="fill:#ebebeb"></path><path d="M386.82,126.5l9,6.59c-54.51,74.64-123,119.26-203.66,132.61-57,9.44-100.81-.86-107.6-2.61v20.57a277.13,277.13,0,0,0,59.22,6,316.79,316.79,0,0,0,50.68-4.09,309.93,309.93,0,0,0,109.46-39.93c40.47-24.12,76.78-58,108-100.71l8.86,6.51.15-35.75Z" style="fill:#e0e0e0"></path><rect x="85.53" y="291.69" width="8.97" height="90.11" style="fill:#ebebeb"></rect><rect x="107.17" y="295.69" width="8.97" height="86.11" style="fill:#ebebeb"></rect><rect x="128.82" y="297.69" width="8.97" height="84.11" style="fill:#ebebeb"></rect><rect x="150.46" y="297.69" width="8.97" height="84.11" style="fill:#ebebeb"></rect><rect x="172.11" y="296.69" width="8.97" height="85.11" style="fill:#ebebeb"></rect><rect x="193.75" y="293.69" width="8.97" height="88.11" style="fill:#ebebeb"></rect><rect x="215.39" y="288.69" width="8.97" height="93.11" style="fill:#ebebeb"></rect><rect x="237.04" y="283.69" width="8.97" height="98.11" style="fill:#ebebeb"></rect><rect x="258.68" y="279.69" width="8.97" height="102.11" style="fill:#ebebeb"></rect><rect x="280.33" y="266.62" width="8.97" height="115.19" style="fill:#ebebeb"></rect><rect x="301.97" y="255.63" width="8.97" height="126.18" style="fill:#ebebeb"></rect><rect x="323.62" y="243.11" width="8.97" height="138.69" style="fill:#ebebeb"></rect><rect x="345.26" y="226.43" width="8.97" height="155.37" style="fill:#ebebeb"></rect><rect x="366.91" y="209.02" width="8.97" height="172.78" style="fill:#ebebeb"></rect><rect x="388.55" y="185.81" width="8.97" height="195.99" style="fill:#ebebeb"></rect><rect x="410.2" y="160.49" width="8.97" height="221.31" style="fill:#ebebeb"></rect></g><g id="freepik--Shadow--inject-73"><ellipse id="freepik--path--inject-73" cx="250" cy="416.24" rx="193.89" ry="11.32" style="fill:#f5f5f5"></ellipse></g><g id="freepik--Banknotes--inject-73"><path d="M397.5,270.39a445.3,445.3,0,0,1-80.78,130.12l-61.94-38.45a445.38,445.38,0,0,0,80.79-130.13Z" style="fill:#407BFF"></path><path d="M397.51,270.38a445.62,445.62,0,0,1-80.8,130.13l-26.77-16.62h0l-35.16-21.82a445.38,445.38,0,0,0,80.79-130.13Q366.53,251.18,397.51,270.38Z" style="fill:#fff;opacity:0.4;isolation:isolate"></path><path d="M345.76,242.81a8.25,8.25,0,0,1-12.35,3.95,445.28,445.28,0,0,1-66.35,106.85A8.25,8.25,0,0,1,269,366.43l38.61,24a12,12,0,0,1,14.92-2.35,445.34,445.34,0,0,0,66.35-106.86,12,12,0,0,1-4.51-14.41l0-.08-38.6-24Zm1.79,87.75c-5.94,9.55-18.89,12.23-28.4,6.33s-12-18.18-6.07-27.73,18.09-12.73,27.61-6.82S353.51,321,347.55,330.56Z" style="opacity:0.2;isolation:isolate"></path><g style="opacity:0.2;isolation:isolate"><path d="M340.63,323.71l2.55,1.58c-.38.63-.77,1.26-1.16,1.88l-2.54-1.57a11.63,11.63,0,0,1-5.43,4.4l-1.65-2.45a10.33,10.33,0,0,0,4.62-3.48l-4.57-2.84c-2.2,2.16-4.76,4.35-7.93,2.38-2.33-1.45-3.27-4.38-1.38-8.16l-2.58-1.6c.39-.63.78-1.25,1.16-1.88l2.54,1.57a11.73,11.73,0,0,1,4.24-3.81l1.73,2.38a11.4,11.4,0,0,0-3.51,3l4.61,2.87c2.2-2.17,4.67-4.47,7.84-2.5C341.5,316.88,342.48,319.87,340.63,323.71Zm-10.94-4.19L325.62,317c-.76,1.78-.37,3,.63,3.59S328.47,320.61,329.69,319.52Zm7.9-1c-1.12-.69-2.26,0-3.49,1.13l4,2.51C338.92,320.33,338.57,319.13,337.59,318.52Z"></path></g><path d="M397.51,270.38a445.62,445.62,0,0,1-80.8,130.13l-26.77-16.62h0L268.69,348S353.44,312.88,397.51,270.38Z" style="opacity:0.2;isolation:isolate"></path><path d="M443.5,337.4A445.44,445.44,0,0,1,310.84,414q-18.21-31.57-36.44-63.14a445.31,445.31,0,0,0,132.66-76.56Q425.29,305.84,443.5,337.4Z" style="fill:#407BFF"></path><path d="M443.5,337.4A445.44,445.44,0,0,1,310.84,414q-18.21-31.57-36.44-63.14a445.31,445.31,0,0,0,132.66-76.56Q425.29,305.84,443.5,337.4Z" style="fill:#fff;opacity:0.4;isolation:isolate"></path><path d="M410.91,288.66a8.25,8.25,0,0,1-12.75-2.35,445.27,445.27,0,0,1-109,62.86,8.25,8.25,0,0,1-4.34,12.21l22.71,39.35a12,12,0,0,1,14.26,5,445.27,445.27,0,0,0,109-62.86A12,12,0,0,1,433.62,328l.07-.06L411,288.61Zm-39.86,78.2c-9.75,5.61-22.42,1.86-28-7.84s-2-21.69,7.75-27.3,22-2.68,27.55,7S380.81,361.26,371.05,366.86Z" style="opacity:0.2;isolation:isolate"></path><g style="opacity:0.2;isolation:isolate"><path d="M368.18,357.55c.51.86,1,1.73,1.51,2.6l-1.92,1.11-1.49-2.59a11.65,11.65,0,0,1-6.87,1.32c-.1-1-.19-2-.29-2.94a10.23,10.23,0,0,0,5.71-.89l-2.68-4.65c-3,.86-6.25,1.58-8.12-1.65-1.37-2.38-.81-5.41,2.64-7.85-.51-.88-1-1.75-1.52-2.63l1.91-1.11,1.49,2.59a11.73,11.73,0,0,1,5.54-1.36c.14,1,.27,1.94.41,2.91a11.29,11.29,0,0,0-4.49,1q1.35,2.36,2.71,4.7c2.95-.87,6.22-1.73,8.09,1.5C372.18,351.94,371.63,355,368.18,357.55Zm-7.66-8.86-2.39-4.14c-1.51,1.21-1.74,2.44-1.14,3.46S358.94,349.07,360.52,348.69Zm7.44,2.85c-.66-1.14-2-1.07-3.62-.65.8,1.37,1.59,2.75,2.38,4.12C368.28,353.76,368.54,352.54,368,351.54Z"></path></g></g><g id="freepik--Coins--inject-73"><rect x="382.02" y="406.29" width="39.03" height="7.66" transform="translate(803.08 820.25) rotate(-180)" style="fill:#407BFF"></rect><rect x="382.02" y="406.29" width="8.6" height="7.66" transform="translate(772.65 820.25) rotate(180)" style="opacity:0.2"></rect><rect x="391.63" y="406.29" width="3.13" height="7.66" style="opacity:0.2"></rect><rect x="396.63" y="406.29" width="2.14" height="7.66" style="opacity:0.2"></rect><rect x="401.63" y="406.29" width="1.07" height="7.66" style="opacity:0.2"></rect><rect x="408.63" y="406.29" width="0.54" height="7.66" style="opacity:0.2"></rect><rect x="383.87" y="398.67" width="39.03" height="7.66" transform="translate(806.77 805.01) rotate(-180)" style="fill:#407BFF"></rect><rect x="383.87" y="398.67" width="8.6" height="7.66" transform="translate(776.34 805.01) rotate(180)" style="opacity:0.2"></rect><rect x="393.47" y="398.67" width="3.13" height="7.66" style="opacity:0.2"></rect><rect x="398.47" y="398.67" width="2.14" height="7.66" style="opacity:0.2"></rect><rect x="403.47" y="398.67" width="1.07" height="7.66" style="opacity:0.2"></rect><rect x="410.47" y="398.67" width="0.54" height="7.66" style="opacity:0.2"></rect><rect x="380.38" y="391.05" width="39.03" height="7.66" transform="translate(799.8 789.77) rotate(180)" style="fill:#407BFF"></rect><rect x="380.38" y="391.05" width="8.6" height="7.66" transform="translate(769.37 789.77) rotate(180)" style="opacity:0.2"></rect><rect x="389.98" y="391.05" width="3.13" height="7.66" style="opacity:0.2"></rect><rect x="394.98" y="391.05" width="2.14" height="7.66" style="opacity:0.2"></rect><rect x="399.98" y="391.05" width="1.07" height="7.66" style="opacity:0.2"></rect><rect x="406.98" y="391.05" width="0.54" height="7.66" style="opacity:0.2"></rect><rect x="382.02" y="383.43" width="39.03" height="7.66" transform="translate(803.08 774.53) rotate(-180)" style="fill:#407BFF"></rect><rect x="382.02" y="383.43" width="8.6" height="7.66" transform="translate(772.65 774.53) rotate(180)" style="opacity:0.2"></rect><rect x="391.63" y="383.43" width="3.13" height="7.66" style="opacity:0.2"></rect><rect x="396.63" y="383.43" width="2.14" height="7.66" style="opacity:0.2"></rect><rect x="401.63" y="383.43" width="1.07" height="7.66" style="opacity:0.2"></rect><rect x="408.63" y="383.43" width="0.54" height="7.66" style="opacity:0.2"></rect><rect x="383.03" y="375.81" width="39.03" height="7.66" transform="translate(805.08 759.29) rotate(-180)" style="fill:#407BFF"></rect><rect x="383.03" y="375.81" width="8.6" height="7.66" transform="translate(774.65 759.29) rotate(180)" style="opacity:0.2"></rect><rect x="392.63" y="375.81" width="3.13" height="7.66" style="opacity:0.2"></rect><rect x="397.63" y="375.81" width="2.14" height="7.66" style="opacity:0.2"></rect><rect x="402.63" y="375.81" width="1.07" height="7.66" style="opacity:0.2"></rect><rect x="409.63" y="375.81" width="0.54" height="7.66" style="opacity:0.2"></rect><rect x="382.03" y="368.19" width="39.03" height="7.66" transform="translate(803.08 744.05) rotate(-180)" style="fill:#407BFF"></rect><rect x="382.03" y="368.19" width="8.6" height="7.66" transform="translate(772.65 744.05) rotate(180)" style="opacity:0.2"></rect><rect x="391.63" y="368.19" width="3.13" height="7.66" style="opacity:0.2"></rect><rect x="396.63" y="368.19" width="2.14" height="7.66" style="opacity:0.2"></rect><rect x="401.63" y="368.19" width="1.07" height="7.66" style="opacity:0.2"></rect><rect x="408.63" y="368.19" width="0.54" height="7.66" style="opacity:0.2"></rect><rect x="382.03" y="360.57" width="39.03" height="7.66" transform="translate(803.08 728.81) rotate(-180)" style="fill:#407BFF"></rect><rect x="382.03" y="360.57" width="8.6" height="7.66" transform="translate(772.65 728.81) rotate(180)" style="opacity:0.2"></rect><rect x="391.63" y="360.57" width="3.13" height="7.66" style="opacity:0.2"></rect><rect x="396.63" y="360.57" width="2.14" height="7.66" style="opacity:0.2"></rect><rect x="401.63" y="360.57" width="1.07" height="7.66" style="opacity:0.2"></rect><rect x="408.63" y="360.57" width="0.54" height="7.66" style="opacity:0.2"></rect><rect x="384.03" y="352.95" width="39.03" height="7.66" transform="translate(807.08 713.57) rotate(-180)" style="fill:#407BFF"></rect><rect x="384.03" y="352.95" width="8.6" height="7.66" transform="translate(776.65 713.57) rotate(180)" style="opacity:0.2"></rect><rect x="393.63" y="352.95" width="3.13" height="7.66" style="opacity:0.2"></rect><rect x="398.63" y="352.95" width="2.14" height="7.66" style="opacity:0.2"></rect><rect x="403.63" y="352.95" width="1.07" height="7.66" style="opacity:0.2"></rect><rect x="410.63" y="352.95" width="0.54" height="7.66" style="opacity:0.2"></rect><rect x="382.03" y="345.33" width="39.03" height="7.66" transform="translate(803.08 698.33) rotate(-180)" style="fill:#407BFF"></rect><rect x="382.03" y="345.33" width="8.6" height="7.66" transform="translate(772.65 698.33) rotate(180)" style="opacity:0.2"></rect><rect x="391.63" y="345.33" width="3.13" height="7.66" style="opacity:0.2"></rect><rect x="396.63" y="345.33" width="2.14" height="7.66" style="opacity:0.2"></rect><rect x="401.63" y="345.33" width="1.07" height="7.66" style="opacity:0.2"></rect><rect x="408.63" y="345.33" width="0.54" height="7.66" style="opacity:0.2"></rect><rect x="380.03" y="337.71" width="39.03" height="7.66" transform="translate(799.08 683.09) rotate(180)" style="fill:#407BFF"></rect><rect x="380.03" y="337.71" width="8.6" height="7.66" transform="translate(768.65 683.09) rotate(180)" style="opacity:0.2"></rect><rect x="389.63" y="337.71" width="3.13" height="7.66" style="opacity:0.2"></rect><rect x="394.63" y="337.71" width="2.14" height="7.66" style="opacity:0.2"></rect><rect x="399.63" y="337.71" width="1.07" height="7.66" style="opacity:0.2"></rect><rect x="406.63" y="337.71" width="0.54" height="7.66" style="opacity:0.2"></rect><rect x="347.6" y="406.29" width="39.03" height="7.66" transform="translate(734.24 820.25) rotate(-180)" style="fill:#407BFF"></rect><rect x="347.6" y="406.29" width="8.6" height="7.66" transform="translate(703.81 820.25) rotate(180)" style="opacity:0.2"></rect><rect x="357.2" y="406.29" width="3.13" height="7.66" style="opacity:0.2"></rect><rect x="362.2" y="406.29" width="2.14" height="7.66" style="opacity:0.2"></rect><rect x="367.2" y="406.29" width="1.07" height="7.66" style="opacity:0.2"></rect><rect x="374.2" y="406.29" width="0.54" height="7.66" style="opacity:0.2"></rect><rect x="349.6" y="398.67" width="39.03" height="7.66" transform="translate(738.24 805.01) rotate(-180)" style="fill:#407BFF"></rect><rect x="349.6" y="398.67" width="8.6" height="7.66" transform="translate(707.81 805.01) rotate(180)" style="opacity:0.2"></rect><rect x="359.2" y="398.67" width="3.13" height="7.66" style="opacity:0.2"></rect><rect x="364.2" y="398.67" width="2.14" height="7.66" style="opacity:0.2"></rect><rect x="369.2" y="398.67" width="1.07" height="7.66" style="opacity:0.2"></rect><rect x="376.2" y="398.67" width="0.54" height="7.66" style="opacity:0.2"></rect><rect x="347.6" y="391.05" width="39.03" height="7.66" transform="translate(734.24 789.77) rotate(-180)" style="fill:#407BFF"></rect><rect x="347.6" y="391.05" width="8.6" height="7.66" transform="translate(703.81 789.77) rotate(180)" style="opacity:0.2"></rect><rect x="357.2" y="391.05" width="3.13" height="7.66" style="opacity:0.2"></rect><rect x="362.2" y="391.05" width="2.14" height="7.66" style="opacity:0.2"></rect><rect x="367.2" y="391.05" width="1.07" height="7.66" style="opacity:0.2"></rect><rect x="374.2" y="391.05" width="0.54" height="7.66" style="opacity:0.2"></rect><rect x="348.6" y="383.43" width="39.03" height="7.66" transform="translate(736.24 774.53) rotate(-180)" style="fill:#407BFF"></rect><rect x="348.6" y="383.43" width="8.6" height="7.66" transform="translate(705.81 774.53) rotate(180)" style="opacity:0.2"></rect><rect x="358.2" y="383.43" width="3.13" height="7.66" style="opacity:0.2"></rect><rect x="363.2" y="383.43" width="2.14" height="7.66" style="opacity:0.2"></rect><rect x="368.2" y="383.43" width="1.07" height="7.66" style="opacity:0.2"></rect><rect x="375.2" y="383.43" width="0.54" height="7.66" style="opacity:0.2"></rect><rect x="347.6" y="375.81" width="39.03" height="7.66" transform="translate(734.24 759.29) rotate(-180)" style="fill:#407BFF"></rect><rect x="347.6" y="375.81" width="8.6" height="7.66" transform="translate(703.81 759.29) rotate(180)" style="opacity:0.2"></rect><rect x="357.21" y="375.81" width="3.13" height="7.66" style="opacity:0.2"></rect><rect x="362.21" y="375.81" width="2.14" height="7.66" style="opacity:0.2"></rect><rect x="367.21" y="375.81" width="1.07" height="7.66" style="opacity:0.2"></rect><rect x="374.21" y="375.81" width="0.54" height="7.66" style="opacity:0.2"></rect><rect x="350.6" y="368.19" width="39.03" height="7.66" transform="translate(740.24 744.05) rotate(-180)" style="fill:#407BFF"></rect><rect x="350.6" y="368.19" width="8.6" height="7.66" transform="translate(709.81 744.05) rotate(180)" style="opacity:0.2"></rect><rect x="360.21" y="368.19" width="3.13" height="7.66" style="opacity:0.2"></rect><rect x="365.21" y="368.19" width="2.14" height="7.66" style="opacity:0.2"></rect><rect x="370.21" y="368.19" width="1.07" height="7.66" style="opacity:0.2"></rect><rect x="377.21" y="368.19" width="0.54" height="7.66" style="opacity:0.2"></rect></g><g id="freepik--Character--inject-73"><g id="freepik--group--inject-73"><path d="M108,195.85a.79.79,0,0,1-.85.89L98,196.5a1.06,1.06,0,0,1-1-.95l-1.56-18.09a.93.93,0,0,1,.86-1l9.13.25a1.17,1.17,0,0,1,1,1.07Z" style="fill:#263238"></path><path d="M105.44,177.62,107,195.88a.69.69,0,0,1-.74.84l-7.74-.21c-.52,0-1.47-.33-1.51-.84l-1.58-18.32c0-.52.86-.91,1.38-.89l7.74.21A.94.94,0,0,1,105.44,177.62Z" style="fill:#fff;opacity:0.5"></path><path d="M102.3,200.82l-1.07-3.52a24.13,24.13,0,0,0,1.07-3.9c.09-1.19-3.07-10.45-3.07-10.45s-3.46,2.74-5.54,4.12,1.23,10.32,1.75,10.55,1.53.82,1.53.82l.69,2.87Z" style="fill:#e4897b"></path><path d="M96.59,204.09c1.07,4.14,5.7,20.88,11.24,23.13,1.45.59,3.16.22,5-.71,6-3.11,12.8-12.49,12.8-12.49l-1.37-6.84-1.27-6.36c-5,2.47-10.75,14.51-12.34,14.42-1.34-.07-4.67-10.38-5.65-13.52a1,1,0,0,0-1.2-.64l-6.48,1.83A1,1,0,0,0,96.59,204.09Z" style="fill:#407BFF"></path><polygon points="102.69 198.93 103.23 201.22 97.27 202.91 96.56 200.42 102.69 198.93" style="fill:#407BFF"></polygon><polygon points="102.69 198.93 103.23 201.22 97.27 202.91 96.56 200.42 102.69 198.93" style="opacity:0.2;isolation:isolate"></polygon><path d="M112.78,226.51c6-3.11,12.8-12.49,12.8-12.49l-1.37-6.84C121.12,210.05,113.76,217.73,112.78,226.51Z" style="opacity:0.2;isolation:isolate"></path><path d="M158.21,328.86l-.05-8.73a.63.63,0,0,1,.49-.61l6.4-1.45a1.06,1.06,0,0,1,1.26.81.93.93,0,0,1,0,.23c0,2.83-.19,4.89-.18,8.44,0,2.18.28,8.77.29,11.79s-3,3.42-3.24,2.19c-1.24-5.53-2.93-9.7-4.53-11.46A1.74,1.74,0,0,1,158.21,328.86Z" style="fill:#263238"></path><path d="M119.22,248.46l-2.82,14.79s-22.29,36.08-22.28,56.91c0,24.89,64.93,10.53,64.93,10.53V319.23s-38.8,3.34-42.3-.55c-4.24-4.73,21.92-41.29,21.92-41.29Z" style="fill:#263238"></path><path d="M94.12,320.16c0,13.72,19.74,15.51,37.45,14.36a206.68,206.68,0,0,0,26.26-3.58c.78-.15,1.21-.25,1.21-.25V319.23l-1.42.11c-4.41.36-18.15,1.35-28.54,1.2-6.18-.08-11.18-.59-12.33-1.87-2.09-2.32,3.17-12.33,9.06-21.91h0c6.09-9.9,12.86-19.36,12.86-19.36l-8.52-12.69-10.92-16.24-2.83,14.79S94.11,299.33,94.12,320.16Z" style="fill:#fff;opacity:0.2;isolation:isolate"></path><path d="M129.08,320.54l2.49,14a206.68,206.68,0,0,0,26.26-3.58l-.21-11.6C153.21,319.7,139.47,320.69,129.08,320.54Z" style="opacity:0.2;isolation:isolate"></path><path d="M130.11,280.53s-3.62,8.53-4.3,16.22c6.09-9.9,12.86-19.36,12.86-19.36l-8.52-12.69-4.49-1.45S124.66,269.08,130.11,280.53Z" style="opacity:0.2;isolation:isolate"></path><path d="M135.91,405.77h8.73a.62.62,0,0,1,.61.5l1.42,6.4a1.05,1.05,0,0,1-.82,1.25.85.85,0,0,1-.23,0c-2.82-.05-4.88-.22-8.43-.22-2.19,0-8.78.23-11.8.23s-3.41-3-2.17-3.26c5.54-1.21,9.71-2.88,11.48-4.47A1.74,1.74,0,0,1,135.91,405.77Z" style="fill:#263238"></path><path d="M158.12,248.93s1.93,7.25,0,40.45c-3,51-12.43,118.84-12.43,118.84l-11-2s1.41-101.52-.07-129.54c0,0-15.52-13.92-15.41-28.23S158.12,248.93,158.12,248.93Z" style="fill:#263238"></path><path d="M158.12,248.93s1.93,7.25,0,40.45c-3,51-12.43,118.84-12.43,118.84l-11-2s1.41-101.52-.07-129.54c0,0-15.52-13.92-15.41-28.23S158.12,248.93,158.12,248.93Z" style="fill:#fff;opacity:0.2;isolation:isolate"></path><path d="M118.41,247.51a1.28,1.28,0,0,0,1.27,1.3l36.2.81,2.57.06a1.29,1.29,0,0,0,1.33-1.21l.73-9.53.39-5.13,1.86-24.44.39-5.16c-17.73-13.24-40.21-3.39-40.21-3.39C118.9,213.53,118.46,240.58,118.41,247.51Z" style="fill:#407BFF"></path><polygon points="159.13 249.51 118.66 248.27 118.19 250.68 159.13 252.01 159.13 249.51" style="fill:#407BFF"></polygon><polygon points="159.13 249.51 118.66 248.27 118.19 250.68 159.13 252.01 159.13 249.51" style="opacity:0.2;isolation:isolate"></polygon><path d="M160.9,233.81l1.86-24.44a8.63,8.63,0,0,0-3,1.67S153.44,220.88,160.9,233.81Z" style="opacity:0.2;isolation:isolate"></path><path d="M155.88,249.62l2.57.06a1.29,1.29,0,0,0,1.33-1.21l.73-9.53A89.3,89.3,0,0,0,155.88,249.62Z" style="opacity:0.2;isolation:isolate"></path><g style="opacity:0.7000000000000001;isolation:isolate"><path d="M122.56,220.49l.44-1.16a3.41,3.41,0,0,0,2,.55c.82,0,1.15-.32,1.13-.76-.06-1.22-3.42.08-3.54-2.47,0-1.21.85-2,2.34-2.11a3.91,3.91,0,0,1,2.1.46l-.45,1.16a2.69,2.69,0,0,0-1.6-.41c-.79,0-1.15.35-1.13.77.06,1.3,3.42,0,3.54,2.5.05,1.19-.86,2-2.42,2.09A3.94,3.94,0,0,1,122.56,220.49Z" style="fill:#fff"></path></g><path d="M150.69,200.49c-3.48,3.17-12,2-12,2s-5.33-1.46-4.21-3.13c3.14-.52,4.66-2,5.29-3.86a9.18,9.18,0,0,0,.31-3.58,17.11,17.11,0,0,0-.26-2l10.56-7.82C149,187.26,147.28,196.75,150.69,200.49Z" style="fill:#e4897b"></path><path d="M147.92,187.07c-.42,6.33-5.63,8.08-8.17,8.43a9.18,9.18,0,0,0,.31-3.58Z" style="opacity:0.2;isolation:isolate"></path><path d="M153.87,165.69s2.95,9.53-1.66,14.05-7.34-13.62-7.34-13.62Z" style="fill:#263238"></path><path d="M138.35,189.74A9,9,0,0,0,149,191.65a10,10,0,0,0,4.94-5.43c.13-.32.23-.66.33-1,1.65-6.34.9-16.88-6-19.84a9.69,9.69,0,0,0-12.76,5,9.53,9.53,0,0,0-.8,4.44C135,181.88,134.83,186.06,138.35,189.74Z" style="fill:#e4897b"></path><path d="M145.45,177c0,.57.28,1.05.66,1.05s.69-.45.71-1-.29-1.05-.67-1.05S145.46,176.41,145.45,177Z" style="fill:#263238"></path><path d="M152,177.13c-.05.57.29,1.05.66,1.06s.69-.46.71-1-.29-1.05-.67-1.05S152,176.58,152,177.13Z" style="fill:#263238"></path><path d="M149.89,177.37a20.12,20.12,0,0,0,2.66,5,3.33,3.33,0,0,1-2.79.46Z" style="fill:#de5753"></path><path d="M143.47,174.85a.36.36,0,0,0,.33-.13,2.74,2.74,0,0,1,2.19-1.09.34.34,0,0,0,.06-.67h0a3.36,3.36,0,0,0-2.78,1.34.33.33,0,0,0,0,.47h0A.52.52,0,0,0,143.47,174.85Z" style="fill:#263238"></path><path d="M154.81,174.94a.47.47,0,0,0,.2,0,.35.35,0,0,0,.18-.45h0a3.34,3.34,0,0,0-2.4-2,.34.34,0,0,0-.38.29h0a.34.34,0,0,0,.29.38h0a2.72,2.72,0,0,1,1.87,1.58A.35.35,0,0,0,154.81,174.94Z" style="fill:#263238"></path><path d="M140.11,166.07l.47,3.11a2.32,2.32,0,0,0-1.09,3c1.08,2.6-.3,6.71-2.27,8.39,0,0-.09-1.13-1-.84s-.53,6.22,1.42,9a20.65,20.65,0,0,1-5.15-9.21c-1.64-5.71-1.47-9.94-.35-12.2Z" style="fill:#263238"></path><path d="M131.52,180.55a6.77,6.77,0,0,0,3.8,3.48c2.22.8,3.51-1.15,3-3.34-.43-1.95-2.11-4.77-4.41-4.6A3,3,0,0,0,131.52,180.55Z" style="fill:#e4897b"></path><path d="M149,184.9a22.24,22.24,0,0,0-2.1,2.44l-.5-.26c-2.28-1.2-2.93-2.51-3-3.6a3.39,3.39,0,0,1,.34-1.53,3,3,0,0,1,.49-.75,12.2,12.2,0,0,0,4,3.28C148.66,184.75,149,184.9,149,184.9Z" style="fill:#263238"></path><path d="M148.19,184.48l-.63.7c-2.14-1.14-3.5-2.22-3.83-3.23a3,3,0,0,1,.49-.75A12.2,12.2,0,0,0,148.19,184.48Z" style="fill:#fff"></path><path d="M146.36,187.08c-2.28-1.2-2.93-2.51-3-3.6a8.4,8.4,0,0,1,2.26,1.84A3.11,3.11,0,0,1,146.36,187.08Z" style="fill:#de5753"></path><path d="M131.24,172a9.19,9.19,0,0,1,3.48-8.77c4.65-3.89,17.71-5.71,19.69,0s-7.66,10.95-14.66,5.9Z" style="fill:#263238"></path><path d="M149.5,195.71l-10.14,4.57-.59-3.66L135,197.93a3.06,3.06,0,0,0-2,3.21l.42,4,5.14-2.81,2.56,3.62,12.18-5.86Z" style="fill:#407BFF"></path><path d="M149.5,195.71l-10.14,4.57-.59-3.66L135,197.93a3.06,3.06,0,0,0-2,3.21l.42,4,5.14-2.81,2.56,3.62,12.18-5.86Z" style="fill:#fff;opacity:0.7000000000000001;isolation:isolate"></path><path d="M151.12,252s.23,5.41,7.22,7.72a24.31,24.31,0,0,0-.56-7.76Z" style="opacity:0.2;isolation:isolate"></path><path d="M163.15,204.21c6.2,6,15.43,25.19,12.69,33.49-2.32,7.06-13.13,17.68-16.34,20.72a1.2,1.2,0,0,1-1.72-.06l-3.84-4.22a1.21,1.21,0,0,1-.08-1.54c2.5-3.29,11.94-15.88,12.58-18.46.74-3-7.31-14.63-7.31-14.63a26.11,26.11,0,0,1-.15-10.23C160.05,204.08,163.15,204.21,163.15,204.21Z" style="fill:#407BFF"></path><path d="M153.67,253.66l-1.4,1.45s2.18,3.3,4.82,4l.69-.71Z" style="fill:#407BFF"></path><path d="M153.67,253.66l-1.4,1.45s2.18,3.3,4.82,4l.69-.71Z" style="opacity:0.2;isolation:isolate"></path></g></g></svg>