<?xml version="1.0" standalone="no"?>
<!DOCTYPE svg PUBLIC "-//W3C//DTD SVG 20010904//EN"
 "http://www.w3.org/TR/2001/REC-SVG-20010904/DTD/svg10.dtd">
<svg version="1.0" xmlns="http://www.w3.org/2000/svg"
 width="512.000000pt" height="512.000000pt" viewBox="0 0 512.000000 512.000000"
 preserveAspectRatio="xMidYMid meet">

<g transform="translate(0.000000,512.000000) scale(0.100000,-0.100000)"
fill="green" stroke="none">
<path d="M2515 4371 c-41 -18 -54 -44 -57 -116 l-3 -69 -55 -16 c-91 -27 -161
-69 -226 -134 -65 -66 -97 -118 -125 -206 l-17 -55 -105 -3 -105 -3 29 93 c33
106 36 154 11 184 -33 42 -50 44 -337 44 -227 0 -281 -3 -305 -15 -59 -31 -64
-77 -21 -213 l29 -92 -62 -1 c-87 0 -127 -17 -148 -59 -16 -31 -18 -68 -18
-303 0 -220 3 -273 15 -297 32 -61 18 -60 655 -60 l580 0 0 -282 c1 -207 4
-287 13 -299 34 -45 110 -52 154 -15 l28 24 3 286 3 286 109 0 110 0 0 -1050
0 -1050 -110 0 -110 0 0 390 c0 424 -1 434 -55 458 -41 19 -81 14 -114 -14
l-31 -26 -2 -401 -3 -402 -111 -5 c-124 -6 -138 -12 -155 -70 -9 -30 -8 -43 5
-72 9 -19 28 -40 42 -47 18 -8 176 -11 540 -11 l516 0 29 29 c41 41 41 101 0
142 -29 28 -32 29 -135 29 l-106 0 0 1050 0 1050 575 0 c614 0 629 1 654 48 7
14 11 123 11 315 l0 294 -25 25 c-28 29 -63 38 -141 38 -30 0 -54 3 -54 6 0 3
14 50 31 105 34 110 33 142 -7 180 -26 24 -26 24 -320 27 l-295 3 -35 -35
c-42 -42 -43 -62 -4 -186 17 -51 30 -95 30 -97 0 -2 -47 -3 -104 -3 l-104 0
-7 38 c-28 156 -191 318 -363 363 l-50 12 -4 69 c-3 57 -8 72 -29 93 -27 28
-82 40 -114 26z m178 -407 c60 -20 132 -84 163 -145 l24 -49 -320 0 -320 0 15
38 c28 66 112 141 185 163 47 14 204 10 253 -7z m-1053 -87 c0 -7 -7 -35 -16
-61 l-16 -47 -85 3 -86 3 -13 45 c-22 73 -26 70 101 70 89 0 115 -3 115 -13z
m2066 -3 c-4 -9 -11 -36 -17 -60 l-11 -44 -87 0 -87 0 -17 53 c-9 30 -17 57
-17 60 0 4 54 7 121 7 108 0 120 -2 115 -16z m204 -464 l0 -150 -1350 0 -1350
0 0 150 0 150 1350 0 1350 0 0 -150z"/>
<path d="M29 3741 l-29 -29 0 -1447 c0 -1613 -5 -1494 70 -1516 31 -9 46 -9
70 1 60 25 60 22 60 387 l0 333 638 0 c504 0 649 3 690 14 l52 13 0 -343 0
-344 29 -32 c25 -28 36 -33 76 -33 39 0 51 5 71 28 l25 29 -3 576 -3 577 -23
43 c-54 101 -140 163 -252 181 -40 7 -299 11 -682 11 l-618 0 0 764 0 763 -26
27 c-39 38 -105 37 -145 -3z m1495 -1782 c38 -30 56 -71 56 -129 0 -58 -18
-99 -56 -129 -26 -21 -33 -21 -675 -21 l-649 0 0 150 0 150 649 0 c642 0 649
0 675 -21z"/>
<path d="M4946 3744 l-26 -27 0 -763 0 -764 -617 0 c-377 0 -643 -4 -682 -10
-111 -19 -193 -76 -247 -172 l-29 -53 -3 -577 -3 -576 25 -29 c20 -23 32 -28
70 -28 36 0 51 6 73 28 l28 27 3 349 3 348 52 -14 c40 -10 187 -13 689 -13
l638 0 0 -333 c0 -365 0 -362 60 -387 24 -10 39 -10 70 -1 75 22 70 -97 70
1516 l0 1447 -29 29 c-40 40 -106 41 -145 3z m-26 -1914 l0 -150 -646 0 c-580
0 -649 2 -674 16 -40 24 -60 65 -60 123 0 63 19 111 55 139 l28 22 648 0 649
0 0 -150z"/>
<path d="M2313 2215 c-39 -17 -53 -42 -53 -93 0 -112 158 -131 191 -24 15 51
-8 97 -56 118 -41 17 -42 17 -82 -1z"/>
</g>
</svg>
