<?xml version="1.0" encoding="UTF-8" standalone="no"?>
<!DOCTYPE svg PUBLIC "-//W3C//DTD SVG 1.1//EN" "http://www.w3.org/Graphics/SVG/1.1/DTD/svg11.dtd">
<svg version="1.1" xmlns="http://www.w3.org/2000/svg" xmlns:xlink="http://www.w3.org/1999/xlink" preserveAspectRatio="xMidYMid meet" viewBox="0 0 152 152" width="152" height="152"><defs><path d="M118.49 0.21C137 0.21 152 15.21 152 33.72C152 57.42 152 94.36 152 117.89C152 136.85 136.63 152.21 117.68 152.21C94.14 152.21 57.21 152.21 33.51 152.21C15 152.21 0 137.21 0 118.7C0 95 0 57.32 0 33.59C0 15.16 14.95 0.21 33.38 0.21C57.11 0.21 94.79 0.21 118.49 0.21Z" id="a9NjAGNPi9"></path><path d="M66.44 99.02L56.35 92.25L104.3 59.91L74.7 40.01L60.78 49.37L71.58 56.53L46.66 73.19L25.77 59.39L76.07 25.89L125.97 59.26L66.44 99.02ZM85.37 53.15L95.45 59.91L47.5 92.25L77.17 112.16L91.09 102.79L80.29 95.7L105.28 79.04L126.16 92.84L75.74 126.28L25.97 93.03L85.37 53.15ZM46.27 113L35.99 105.98L25.58 113L25.71 126.54L46.27 113ZM105.99 39.68L116.34 46.71L126.42 40.01L126.42 26.15L105.99 39.68Z" id="cyEO5Tl6p"></path></defs><g><g><g><g><use xlink:href="#a9NjAGNPi9" opacity="1" fill="#f9dc30" fill-opacity="1"></use></g><g><use xlink:href="#cyEO5Tl6p" opacity="1" fill="#1e447f" fill-opacity="1"></use><g><use xlink:href="#cyEO5Tl6p" opacity="1" fill-opacity="0" stroke="#000000" stroke-width="1" stroke-opacity="0"></use></g></g></g></g></g></svg>