<?xml version="1.0" encoding="UTF-8" standalone="no"?>
<!DOCTYPE svg PUBLIC "-//W3C//DTD SVG 1.1//EN" "http://www.w3.org/Graphics/SVG/1.1/DTD/svg11.dtd">
<svg version="1.1" xmlns="http://www.w3.org/2000/svg" xmlns:xlink="http://www.w3.org/1999/xlink" preserveAspectRatio="xMidYMid meet" viewBox="0 0 152 152" width="152" height="152"><defs><path d="M117.03 3C140.32 3 151.97 14.65 151.97 37.94C151.97 87.21 151.97 114.58 151.97 120.06C151.97 143.35 140.32 155 117.03 155C67.76 155 40.39 155 34.91 155C11.62 155 -0.03 143.35 -0.03 120.06C-0.03 70.79 -0.03 43.42 -0.03 37.94C-0.03 14.65 11.62 3 34.91 3C84.18 3 111.55 3 117.03 3Z" id="c4I0XYxCrJ"></path><linearGradient id="gradientc1knJTfXxR" gradientUnits="userSpaceOnUse" x1="10.21" y1="13.24" x2="141.73" y2="144.76"><stop style="stop-color: #ec1940;stop-opacity: 1" offset="0%"></stop><stop style="stop-color: #e31b44;stop-opacity: 1" offset="10%"></stop><stop style="stop-color: #c92151;stop-opacity: 1" offset="28.000000000000004%"></stop><stop style="stop-color: #9f2b65;stop-opacity: 1" offset="50%"></stop><stop style="stop-color: #663980;stop-opacity: 1" offset="76%"></stop><stop style="stop-color: #2b479c;stop-opacity: 1" offset="100%"></stop></linearGradient><path d="M67.31 104.86C66.61 105.22 66.17 105.95 66.18 106.75C66.18 109.17 66.18 128.59 66.18 131.01C66.18 131.6 66.66 132.08 67.25 132.08C67.27 132.08 67.29 132.08 67.31 132.08C67.94 132.08 72.97 132.08 73.6 132.08C73.6 132.08 73.6 132.08 73.6 132.08C73.6 130.03 73.6 119.78 73.6 101.34C69.83 103.44 67.73 104.61 67.31 104.86Z" id="f2PsEhHJCd"></path><path d="M77.69 98.83C77.42 98.95 77.24 99.22 77.25 99.52C77.25 101.67 77.25 112.44 77.25 131.83C82.64 131.83 85.64 131.83 86.24 131.83C87.14 131.87 87.9 131.16 87.93 130.26C87.94 130.22 87.94 130.18 87.93 130.13C87.93 126.65 87.93 98.79 87.93 95.31C87.88 94.51 87.18 93.91 86.39 93.97C86.2 93.98 86.02 94.03 85.86 94.11C84.23 95.05 78.5 98.35 77.69 98.83Z" id="apJJHZmrd"></path><path d="M51.98 48.97C59.51 39.28 71.13 33.63 83.41 33.7C92.55 33.74 101.41 36.86 108.55 42.56C109.69 43.5 110.57 43.57 111.45 42.56C112.33 41.56 112.26 40.86 111.45 39.73C95.63 20.96 67.59 18.56 48.82 34.37C43.11 39.18 38.7 45.35 36.01 52.31C30.75 53.86 25.67 55.96 20.86 58.59C19.6 59.28 19.16 60.16 19.6 61.23C20.04 62.3 20.92 62.49 22.18 62.17C26.07 61.04 30.04 60.1 34.12 59.22C33.54 61.63 33.22 64.1 33.18 66.58C32.94 81.8 40.6 96.07 53.42 104.29C54.68 105.05 55.75 105.05 56.44 104.29C57.1 103.54 57.02 102.39 56.27 101.72C56.18 101.65 56.09 101.59 56 101.53C48.03 94.33 43.47 84.1 43.43 73.37C43.41 68.22 44.46 63.12 46.51 58.4C50.65 58.03 55.12 57.77 60.08 57.77C92.08 57.77 119.12 68.34 119.12 82.23C119.12 89.21 110.25 96.25 99.69 101.09C97.11 102.22 96.86 103.04 97.24 104.17C97.62 105.3 98.68 105.55 100 105.11C118.86 98.83 132.51 89.08 132.51 77.01C132.57 59.79 106.35 47.15 72.91 47.15C65.89 47.15 58.89 47.76 51.98 48.97Z" id="b1efyVRmtl"></path></defs><g><g><g><g><use xlink:href="#c4I0XYxCrJ" opacity="1" fill="url(#gradientc1knJTfXxR)"></use><g><use xlink:href="#c4I0XYxCrJ" opacity="1" fill-opacity="0" stroke="#000000" stroke-width="1" stroke-opacity="0"></use></g></g><g><g><use xlink:href="#f2PsEhHJCd" opacity="1" fill="#ffffff" fill-opacity="1"></use><g><use xlink:href="#f2PsEhHJCd" opacity="1" fill-opacity="0" stroke="#000000" stroke-width="1" stroke-opacity="0"></use></g></g><g><use xlink:href="#apJJHZmrd" opacity="1" fill="#ffffff" fill-opacity="1"></use><g><use xlink:href="#apJJHZmrd" opacity="1" fill-opacity="0" stroke="#000000" stroke-width="1" stroke-opacity="0"></use></g></g><g><use xlink:href="#b1efyVRmtl" opacity="1" fill="#ffffff" fill-opacity="1"></use><g><use xlink:href="#b1efyVRmtl" opacity="1" fill-opacity="0" stroke="#000000" stroke-width="1" stroke-opacity="0"></use></g></g></g></g></g></g></svg>