<?xml version="1.0" encoding="UTF-8" standalone="no"?>
<!DOCTYPE svg PUBLIC "-//W3C//DTD SVG 1.1//EN" "http://www.w3.org/Graphics/SVG/1.1/DTD/svg11.dtd">
<svg version="1.1" xmlns="http://www.w3.org/2000/svg" xmlns:xlink="http://www.w3.org/1999/xlink" preserveAspectRatio="xMidYMid meet" viewBox="0 0 152 152" width="152" height="152"><defs><path d="M118.49 0.21C137 0.21 152 15.21 152 33.72C152 57.42 152 94.36 152 117.89C152 136.85 136.63 152.21 117.68 152.21C94.14 152.21 57.21 152.21 33.51 152.21C15 152.21 0 137.21 0 118.7C0 95 0 57.32 0 33.59C0 15.16 14.95 0.21 33.38 0.21C57.11 0.21 94.79 0.21 118.49 0.21Z" id="e13Nw37uGH"></path><path d="M79.99 119.56L116.71 119.56L93.22 76.21L55.04 76.21L79.99 119.56Z" id="a4eiIh3qDl"></path><path d="M98.88 69.51L133.24 26.26L93.68 26.26L59.32 69.51L98.88 69.51ZM59.32 119.88L93.68 76.1L54.12 76.1L19.76 119.88L59.32 119.88Z" id="c1UI18D47Q"></path><path d="M59.54 69.61L98.26 69.61L72.77 26.26L34.59 26.26L59.54 69.61Z" id="d2r4MgFOOk"></path></defs><g><g><g><g><use xlink:href="#e13Nw37uGH" opacity="1" fill="#0d6fab" fill-opacity="1"></use></g><g><g><use xlink:href="#a4eiIh3qDl" opacity="1" fill="#ffffff" fill-opacity="1"></use><g><use xlink:href="#a4eiIh3qDl" opacity="1" fill-opacity="0" stroke="#000000" stroke-width="0" stroke-opacity="1"></use></g></g><g><use xlink:href="#c1UI18D47Q" opacity="1" fill="#db8135" fill-opacity="1"></use><g><use xlink:href="#c1UI18D47Q" opacity="1" fill-opacity="0" stroke="#000000" stroke-width="1" stroke-opacity="0"></use></g></g><g><use xlink:href="#d2r4MgFOOk" opacity="1" fill="#ffffff" fill-opacity="1"></use><g><use xlink:href="#d2r4MgFOOk" opacity="1" fill-opacity="0" stroke="#000000" stroke-width="0" stroke-opacity="1"></use></g></g></g></g></g></g></svg>