<?xml version="1.0" encoding="UTF-8" standalone="no"?>
<!DOCTYPE svg PUBLIC "-//W3C//DTD SVG 1.1//EN" "http://www.w3.org/Graphics/SVG/1.1/DTD/svg11.dtd">
<svg version="1.1" xmlns="http://www.w3.org/2000/svg" xmlns:xlink="http://www.w3.org/1999/xlink" preserveAspectRatio="xMidYMid meet" viewBox="0 0 152 152" width="152" height="152"><defs><path d="M118.49 0.38C137 0.38 152 15.38 152 33.89C152 57.59 152 94.52 152 118.06C152 137.01 136.63 152.38 117.68 152.38C94.14 152.38 57.21 152.38 33.51 152.38C15 152.38 0 137.38 0 118.87C0 95.17 0 57.48 0 33.76C0 15.32 14.95 0.38 33.38 0.38C57.11 0.38 94.79 0.38 118.49 0.38Z" id="e1wBgz9Mup"></path><path d="M50.69 90.16C47.26 93.65 43.29 95.5 39.2 95.5C30.67 95.5 24.47 89.1 24.47 80.26C24.47 71.43 30.67 65.02 39.2 65.02C43.29 65.02 47.26 66.88 50.69 70.38C50.71 70.39 50.78 70.47 50.91 70.6L56.4 63.95C56.31 63.85 56.26 63.79 56.25 63.77C51.69 58.38 46.21 55.75 39.47 55.75C32.71 55.75 26.53 58.03 22.08 62.13C17.23 66.58 14.68 72.84 14.68 80.26C14.68 87.68 17.23 93.96 22.08 98.4C26.53 102.52 32.71 104.78 39.47 104.78C46.21 104.78 51.69 102.16 56.25 96.76C56.26 96.75 56.31 96.69 56.4 96.59L50.91 89.95C50.78 90.07 50.71 90.14 50.69 90.16ZM71.65 103.88L71.65 56.52L61.95 56.52L61.95 103.88L71.65 103.88ZM102.49 95.95C99.36 95.95 97.94 94.3 97.94 90.61C97.94 88.94 97.94 80.56 97.94 65.48L107.82 65.48L107.82 56.56L97.94 56.56L97.94 41.82L88.43 46.91L88.43 56.56L80.23 56.56L80.23 65.48L88.43 65.48C88.43 81.52 88.43 90.43 88.43 92.22C88.43 99.49 92.74 104.47 99.19 104.61C103.56 104.69 106.19 103.39 107.79 102.43C107.8 102.43 107.83 102.41 107.89 102.37L110.23 93.23L109.66 93.58C106.32 95.16 103.93 95.95 102.49 95.95ZM127.4 103.88L127.4 56.52L117.69 56.52L117.69 103.88L127.4 103.88Z" id="b1XWJs0orw"></path><path d="M94.5 28.17C79.53 28.17 64.81 35.66 55.96 48.21C55.93 48.26 55.78 48.47 55.5 48.86L66.67 48.86C66.74 48.78 66.78 48.73 66.79 48.72C74.38 40.89 84.3 36.74 94.5 36.74C104.7 36.74 114.61 40.89 122.22 48.72C122.23 48.73 122.27 48.78 122.35 48.86L133.5 48.86L133.05 48.21C117.33 34.85 104.48 28.17 94.5 28.17Z" id="cNausi8LW"></path></defs><g><g><g><g><use xlink:href="#e1wBgz9Mup" opacity="1" fill="#1c4882" fill-opacity="1"></use></g><g><g><use xlink:href="#b1XWJs0orw" opacity="1" fill="#ffffff" fill-opacity="1"></use><g><use xlink:href="#b1XWJs0orw" opacity="1" fill-opacity="0" stroke="#000000" stroke-width="1" stroke-opacity="0"></use></g></g><g><use xlink:href="#cNausi8LW" opacity="1" fill="#cc2131" fill-opacity="1"></use><g><use xlink:href="#cNausi8LW" opacity="1" fill-opacity="0" stroke="#000000" stroke-width="1" stroke-opacity="0"></use></g></g></g></g></g></g></svg>