<?xml version="1.0" encoding="UTF-8" standalone="no"?>
<!DOCTYPE svg PUBLIC "-//W3C//DTD SVG 1.1//EN" "http://www.w3.org/Graphics/SVG/1.1/DTD/svg11.dtd">
<svg version="1.1" xmlns="http://www.w3.org/2000/svg" xmlns:xlink="http://www.w3.org/1999/xlink" preserveAspectRatio="xMidYMid meet" viewBox="0 0 152 152" width="152" height="152"><defs><path d="M118.49 0C137 0 152 15 152 33.51C152 57.21 152 94.14 152 117.68C152 136.63 136.63 152 117.68 152C94.14 152 57.21 152 33.51 152C15 152 0 137 0 118.49C0 94.79 0 57.11 0 33.38C0 14.95 14.95 0 33.38 0C57.11 0 94.79 0 118.49 0Z" id="c36ZTVMh3s"></path><path d="M61.42 61.55L61.42 29.8L45.55 45.67L61.42 61.55ZM93.16 61.55L77.29 45.67L61.42 61.55L93.16 61.55ZM93.16 29.8L61.42 29.8L77.29 45.67L93.16 29.8Z" id="b1j7sHkW6l"></path><path d="M93.16 61.55L93.16 29.8L109.03 45.67L93.16 61.55ZM61.41 61.55L77.28 45.67L93.16 61.55L61.41 61.55ZM61.41 29.8L93.16 29.8L77.28 45.67L61.41 29.8Z" id="b5ht4qxPX"></path><path d="M44.82 107.99C44.82 109.41 43.59 110.66 41.99 110.66C41.88 110.66 41.37 110.66 40.45 110.66L40.45 111.24L53.46 111.24L53.46 110.66C52.54 110.66 52.03 110.66 51.92 110.66C50.34 110.66 49.09 109.39 49.09 107.99C49.09 105.46 49.09 85.25 49.09 82.72C49.09 81.34 50.32 80.05 51.92 80.05C52.03 80.05 52.54 80.05 53.46 80.05L53.46 79.47L40.45 79.47L40.45 80.05C41.37 80.05 41.88 80.05 41.99 80.05C43.61 80.05 44.82 81.34 44.82 82.72C44.82 83.54 44.82 87.65 44.82 95.04L29.4 95.04C29.4 87.65 29.4 83.54 29.4 82.72C29.4 81.34 30.65 80.05 32.23 80.05C32.33 80.05 32.84 80.05 33.77 80.05L33.77 79.47L20.75 79.47L20.75 80.05C21.68 80.05 22.19 80.05 22.29 80.05C23.9 80.05 25.12 81.34 25.12 82.72C25.12 85.25 25.12 105.46 25.12 107.98C25.12 109.39 23.9 110.65 22.29 110.65C22.19 110.65 21.68 110.65 20.75 110.65L20.75 111.23L33.76 111.23L33.76 110.66C32.84 110.66 32.33 110.66 32.23 110.66C30.64 110.66 29.4 109.39 29.4 107.99C29.4 107.99 29.42 96.65 29.4 96.65C30.42 96.65 35.57 96.65 44.82 96.65C44.82 102.69 44.82 106.47 44.82 107.99ZM73.11 109.08C71.29 110.76 68.9 111.69 66.43 111.68C63.08 111.68 60.21 109.9 59.16 109.49C58.52 109.26 57.69 109.29 57.2 109.59C56.62 109.94 56.26 110.52 56.13 111.6C56.09 111.6 55.93 111.6 55.64 111.6L55.64 100.59C55.93 100.59 56.09 100.59 56.13 100.59C56.57 103.97 58.15 105.96 59.14 107.1C60.74 108.94 63.77 109.99 66.69 109.52C69.01 109.15 71.55 106.63 71.27 103.51C71.17 102.39 70.92 100.76 68.58 99.22C67.11 98.27 65.03 96.91 63.05 95.6C60.56 93.94 58.3 92.15 57.66 91.43C56.84 90.48 55.8 89.11 55.8 86.93C55.8 85.06 56.5 82.92 58.02 81.49C59.54 80.07 61.59 79 64.53 79C67.47 79 69.7 80.56 70.45 80.92C71.11 81.23 71.87 81.23 72.52 80.92C72.99 80.65 73.3 80.24 73.44 79.18C73.47 79.18 73.63 79.18 73.92 79.18L73.92 89.6C73.63 89.6 73.47 89.6 73.44 89.6C72.99 86.22 71.52 83.68 70.49 82.74C69.47 81.8 67.47 80.51 64.48 81.1C61.62 81.65 60.22 82.94 59.96 85.24C59.76 86.98 60.71 88.06 61.26 88.71C62.37 90.05 69.44 94.05 72.64 96.82C74.29 98.25 75.58 99.94 75.76 102.93C75.87 104.79 74.71 107.62 73.11 109.08ZM102.59 105.07C101.35 109.92 95.89 110.91 94.12 111.14C93.32 111.24 91.28 111.23 89.26 111.23C85.66 111.24 81.11 111.22 77.45 111.22C77.45 111.18 77.45 110.99 77.45 110.64C78.58 110.64 79.2 110.64 79.32 110.64C80.52 110.64 81.88 109.64 81.88 108.13C81.88 105.59 81.88 85.3 81.88 82.77C81.88 81.25 80.52 80.23 79.34 80.23C79.21 80.23 78.59 80.23 77.47 80.23L77.47 79.64C84.24 79.64 88.01 79.64 88.76 79.64C91.48 79.64 92.96 79.9 93.91 80.09C95.51 80.4 100.19 81.78 101.3 86.15C102.17 89.53 100.48 93.79 96.36 95.02C102.02 96.96 103.64 100.96 102.59 105.07ZM94.04 93.5C96.83 91.73 97.8 88.89 97.29 86.37C96.99 84.8 96.1 83.42 94.8 82.5C92.08 80.58 88.16 80.89 86.12 81.51C86.12 82.35 86.12 86.56 86.12 94.13L86.11 94.13C90.21 94.46 92.86 94.25 94.04 93.5ZM95.42 108.56C98.93 106.05 99.66 99.92 94.71 96.73C92.72 95.44 87.76 95.53 86.11 95.92C86.11 96.82 86.11 101.33 86.11 109.44L86.11 109.44C90.37 110.25 93.47 109.95 95.42 108.56ZM132.82 90.79C132.44 90.8 132.22 90.81 132.18 90.81C131.87 88.09 130.85 86.17 129.55 84.93C129.18 84.57 128.47 83.84 127.45 83.2C125.32 81.82 122.74 81.29 120.23 81.72C115.73 82.52 113.42 85.49 112.26 88.36C110.84 91.88 109.93 97.89 112.35 102.97C114.31 107.09 118.08 108.81 120.99 109.25C123.47 109.63 128.97 109.51 133.16 103.86C133.23 103.9 133.76 104.26 133.83 104.3C130.57 108.89 126.25 111.83 121.3 111.79C114.98 111.73 111.01 108.25 109.19 106.17C107.27 103.99 105.8 99.85 105.78 96.23C105.77 93.03 106.48 89.45 107.62 87.36C109.61 83.78 113.75 80.21 119.21 79.68C123.29 79.28 125.98 80.08 128.27 81.39C129.42 82.05 130.07 82.13 130.69 81.86C131.31 81.6 131.81 81.06 131.81 80.01C131.85 80.01 132.03 80.01 132.36 80.01L132.36 80.03L132.82 90.79Z" id="ae5yrTduY"></path></defs><g><g><g><g><use xlink:href="#c36ZTVMh3s" opacity="1" fill="#f5f5f5" fill-opacity="1"></use></g><g><g><g><use xlink:href="#b1j7sHkW6l" opacity="1" fill="#cf4037" fill-opacity="1"></use><g><use xlink:href="#b1j7sHkW6l" opacity="1" fill-opacity="0" stroke="#000000" stroke-width="1" stroke-opacity="0"></use></g></g></g><g><g><use xlink:href="#b5ht4qxPX" opacity="1" fill="#cf4037" fill-opacity="1"></use><g><use xlink:href="#b5ht4qxPX" opacity="1" fill-opacity="0" stroke="#000000" stroke-width="1" stroke-opacity="0"></use></g></g></g></g><g><g><use xlink:href="#ae5yrTduY" opacity="1" fill="#000000" fill-opacity="1"></use><g><use xlink:href="#ae5yrTduY" opacity="1" fill-opacity="0" stroke="#000000" stroke-width="1" stroke-opacity="0"></use></g></g></g></g></g></g></svg>