<?xml version="1.0" encoding="UTF-8" standalone="no"?>
<!DOCTYPE svg PUBLIC "-//W3C//DTD SVG 1.1//EN" "http://www.w3.org/Graphics/SVG/1.1/DTD/svg11.dtd">
<svg version="1.1" xmlns="http://www.w3.org/2000/svg" xmlns:xlink="http://www.w3.org/1999/xlink" preserveAspectRatio="xMidYMid meet" viewBox="0 0 152 152" width="152" height="152"><defs><path d="M118.49 0.21C137 0.21 152 15.21 152 33.72C152 57.42 152 94.36 152 117.89C152 136.85 136.63 152.21 117.68 152.21C94.14 152.21 57.21 152.21 33.51 152.21C15 152.21 0 137.21 0 118.7C0 95 0 57.32 0 33.59C0 15.16 14.95 0.21 33.38 0.21C57.11 0.21 94.79 0.21 118.49 0.21Z" id="ai0nISKr"></path><path d="M113.7 19.75C118.95 19.75 123.34 21.62 126.93 25.21C130.67 28.88 132.54 33.33 132.54 38.58C132.54 46.11 132.54 106.38 132.54 113.91C132.54 119.09 130.67 123.55 126.93 127.21C123.34 130.81 118.95 132.68 113.7 132.68C106.16 132.68 45.84 132.68 38.3 132.68C33.05 132.68 28.59 130.81 24.93 127.21C21.33 123.55 19.46 119.09 19.46 113.91C19.46 106.38 19.46 46.11 19.46 38.58C19.46 33.33 21.33 28.88 24.93 25.21C28.59 21.62 33.05 19.75 38.3 19.75C53.38 19.75 106.16 19.75 113.7 19.75Z" id="b288vBa4eO"></path><path d="M111.91 83.8L119.45 76.18L111.19 76.18L105.8 83.8L111.91 83.8ZM94.8 85.74C94.8 95.53 94.8 100.97 94.8 102.05C94.8 106.44 95.95 109.67 98.03 111.83C99.97 113.7 102.42 114.56 105.58 114.56C109.97 114.56 113.2 112.84 115.21 109.46C115.22 109.46 115.24 109.46 115.28 109.46L115.28 113.92L123.05 113.92L123.05 85.74L114.28 85.74C114.28 95.61 114.28 101.1 114.28 102.2C114.28 102.92 114.21 103.56 114.06 103.92C113.06 106.3 111.33 107.59 108.67 107.59C105.29 107.59 103.57 105.22 103.57 100.55C103.57 99.56 103.57 94.62 103.57 85.74L94.8 85.74ZM67.91 97.81C64.82 99.68 63.17 102.48 63.17 106.08C63.17 108.31 64.1 110.32 65.69 111.97C67.55 113.7 69.93 114.56 72.8 114.56C76.68 114.56 79.56 113.34 81.57 110.97C81.59 110.97 81.66 110.97 81.79 110.97L81.79 113.91L89.84 113.91C89.84 103.95 89.84 98.42 89.84 97.31C89.84 93.57 88.83 90.7 86.96 88.61C84.66 86.24 81.28 84.95 76.83 84.95C72.23 84.95 68.35 85.81 65.33 87.68C65.49 88.23 66.81 92.66 66.98 93.21C69.42 91.7 72.23 90.98 75.32 90.98C79.2 90.98 81.07 92.21 81.07 94.79C81.07 94.81 81.07 94.91 81.07 95.08L81.07 95.08C74.31 95.66 69.93 96.57 67.91 97.81ZM54.33 85.74L54.33 76.18L45.85 76.18L45.85 85.74L41.82 85.74L41.82 92.21L45.85 92.21C45.85 99.02 45.85 102.81 45.85 103.56C45.85 107.44 46.56 110.32 48.22 111.97C49.8 113.7 52.17 114.56 55.05 114.56C56.92 114.56 58.43 114.34 59.79 113.84C59.78 113.18 59.73 107.89 59.72 107.23C59.43 107.44 58.93 107.59 58.07 107.59C56.7 107.59 55.69 107.08 55.05 106.08C54.54 105.36 54.33 104.07 54.33 102.2C54.33 101.53 54.33 98.2 54.33 92.21L59.72 92.21L59.72 85.74L59.72 85.74L54.33 85.74ZM81.28 100.54C81.28 100.74 81.28 101.75 81.28 103.56C81.24 104.56 81.22 105.11 81.21 105.22C80.85 106.29 80.06 107.23 79.05 107.8C78.05 108.67 76.83 109.1 75.46 109.1C72.73 109.1 71.29 107.81 71.29 105.36C71.29 101.98 74.67 100.47 81.28 100.54ZM28.81 113.91L37.72 113.91L37.72 76.18L28.81 76.18L28.81 113.91Z" id="a17BtLZese"></path></defs><g><g><g><use xlink:href="#ai0nISKr" opacity="1" fill="#db802d" fill-opacity="1"></use></g><g><g><use xlink:href="#b288vBa4eO" opacity="1" fill="#33348e" fill-opacity="1"></use><g><use xlink:href="#b288vBa4eO" opacity="1" fill-opacity="0" stroke="#000000" stroke-width="1" stroke-opacity="0"></use></g></g><g><use xlink:href="#a17BtLZese" opacity="1" fill="#fff22d" fill-opacity="1"></use><g><use xlink:href="#a17BtLZese" opacity="1" fill-opacity="0" stroke="#000000" stroke-width="1" stroke-opacity="0"></use></g></g></g></g></g></svg>