<?xml version="1.0" encoding="UTF-8" standalone="no"?>
<!DOCTYPE svg PUBLIC "-//W3C//DTD SVG 1.1//EN" "http://www.w3.org/Graphics/SVG/1.1/DTD/svg11.dtd">
<svg version="1.1" xmlns="http://www.w3.org/2000/svg" xmlns:xlink="http://www.w3.org/1999/xlink" preserveAspectRatio="xMidYMid meet" viewBox="0 0 152 152" width="152" height="152"><defs><path d="M118.49 0C137 0 152 15 152 33.51C152 57.21 152 94.14 152 117.68C152 136.63 136.63 152 117.68 152C94.14 152 57.21 152 33.51 152C15 152 0 137 0 118.49C0 94.79 0 57.11 0 33.38C0 14.95 14.95 0 33.38 0C57.11 0 94.79 0 118.49 0Z" id="cwCHaSsdd"></path><path d="M77.91 26.68C79.11 30.3 80.78 32.92 86.91 40.89C93.38 49.31 95.45 52.36 96.99 56.73C98.25 60.3 98.27 62.36 97.73 65.6C103.4 66.68 112.7 69.69 118.92 73.43C124.7 76.98 128.9 81.59 130.44 86.05C131.35 88.7 131.31 92.8 130.35 95.36C129.42 97.82 128.15 99.88 126.27 101.93C118.82 110.1 104.05 115.97 86.27 117.83C82.33 118.25 72.69 118.54 69.39 118.35C45.63 116.97 26.52 108.76 21.09 97.6C18.83 92.96 18.88 88.97 21.26 84.38C23.23 80.6 28.62 75.93 34.95 72.5C41.04 69.56 46.76 67.37 52.89 65.65C53.19 69.65 60.99 79.22 63.57 82.6C69.2 89.97 71.43 93.49 73.02 96.3C73.98 98 74.52 99.08 74.25 102.29C74.25 102.29 76.41 100.33 77.23 98.67C78.29 96.51 78.67 94.32 78.46 91.51C78.22 88.13 77.64 86.05 76.03 82.74C74.45 79.52 72.2 76.26 67.91 71C61.86 63.57 59.61 59.48 58.69 54.18C57.66 48.3 59.32 42.04 62.7 39C63.44 38.33 64.63 37.69 64.63 37.69C64.63 37.69 64.53 39.21 64.53 40.93C64.53 44.57 64.94 46.47 66.34 49.25C68.08 52.69 70.48 55.92 77.85 64.69C84.37 72.45 86.39 76.39 86.39 81.31C86.39 82.47 86.4 83.69 86.4 83.69C86.4 83.69 88.12 82.37 88.92 81.17C91.44 77.35 91.84 71.4 89.92 66.13C88.6 62.51 86.46 59.22 80.14 51.28C73.71 43.19 71.01 36.71 71.01 31.31C71.01 25.92 72.18 20.76 77.22 17.55C76.86 20.66 77.01 23.99 77.91 26.68ZM197.9 92.53C197.13 88.8 194.38 85.06 190.41 82.31C189.2 81.48 185.58 79.6 181.83 77.87C174.33 74.4 172.22 73.15 170.35 71.06C168.52 69 167.85 67.18 167.83 64.25C167.82 62.3 167.93 61.71 168.56 60.34C170.6 55.89 175.7 53.52 181.63 54.27C185.12 54.71 186.95 55.49 189.01 57.42C191.17 59.43 192.26 61.77 192.85 65.6C192.87 65.74 192.93 66.46 193.03 67.76L196.27 67.76L196 52.91C195.35 52.75 194.99 52.66 194.92 52.64C194.11 52.44 188.72 51.41 185.88 51.06C181.62 50.52 179.9 50.46 177.4 50.74C172.55 51.3 168.54 53.14 165.51 56.2C162.43 59.31 160.94 62.61 160.7 66.82C160.47 71.13 161.84 74.7 164.92 77.76C167.51 80.33 168.61 81 176.61 84.8C186.84 89.66 189.15 91.1 190.7 94.76C192.05 97.93 192.15 101.49 190.75 104.34C187.19 111.62 175.98 113.52 169 108.03C166.39 105.98 164.48 102.88 163.86 99.68C163.84 99.57 163.73 99.01 163.54 98L160.77 98C161.07 106.53 161.23 111.26 161.26 112.21C161.26 112.21 166.58 113.64 169.05 113.9C170.93 114.1 172.79 114.46 174.67 114.46C178.45 114.46 180.2 114.96 184.12 113.65C188.17 112.3 197.08 109.6 198.09 97.05C198.24 95.25 198.1 93.47 197.9 92.53ZM232.89 78.38C234.59 81.01 234.61 83.28 234.61 84.77C234.61 86.82 234.61 103.23 234.61 105.28C234.61 107.71 236.37 108.5 238.91 107.64C239.03 107.59 239.67 107.35 240.81 106.9L240.81 109.6C235.14 112.08 231.99 113.46 231.36 113.73C230.27 114.22 229.52 113.11 228.99 111.04C228.95 110.91 228.75 110.25 228.4 109.06C227.45 109.8 226.93 110.21 226.82 110.29C224.6 112.03 221.65 113.65 217.33 113.65C213.25 113.67 210.58 113.11 207.93 108.88C206.69 106.44 206.55 103.15 207.6 100.78C208.81 98.04 211.22 96.63 221.31 92.73C221.76 92.56 224.03 91.7 228.13 90.17C228.13 89.03 228.13 88.4 228.13 88.28C228.13 81.26 226.24 79.1 223.81 77.75C221.85 76.66 219.26 76.94 216.79 78.56C214.74 79.89 214.12 82.15 215.17 84.46C215.98 86.25 215.71 85.69 215.71 85.74C215.15 86.04 210.72 88.38 210.16 88.67C210.16 88.67 209.21 87.03 208.93 86.13C207.66 81.96 209.29 79.6 215.55 76.16C218.83 74.36 220.75 73.7 223 73.7C227.32 73.7 231.1 75.59 232.89 78.38ZM217.54 97.76C216.17 98.45 214.61 99.69 214.09 100.7C213.41 102.01 213.52 104.4 214.36 105.82C215.14 107.16 216.09 108.25 217.33 108.79C217.77 108.99 219.26 109.33 220.3 109.33C222.4 109.35 224.63 108.46 226.89 106.58C226.97 106.51 227.39 106.17 228.13 105.56L228.13 93.14C222.2 95.64 218.67 97.18 217.54 97.76ZM255.93 80.96C257.05 79.91 257.67 79.33 257.79 79.21C261.81 75.41 265.65 73.7 268.62 73.7C275.37 73.7 281.58 79.64 281.31 88.01C281.31 89.95 281.31 105.5 281.31 107.44C281.31 109.6 281.85 110.95 284.01 110.95C284.24 110.95 285.41 110.95 287.52 110.95L287.52 113.65L268.89 113.65L268.89 110.95C270.51 110.95 271.41 110.95 271.59 110.95C273.75 110.95 274.56 109.6 274.56 107.44C274.56 105.5 274.56 89.95 274.56 88.01C274.56 83.96 273.07 81.93 271.86 80.72C270.24 79.1 268.27 78.64 265.38 78.83C263.14 78.97 260.83 80.16 258.19 82.3C258.08 82.39 257.51 82.85 256.47 83.69C256.47 98.75 256.47 107.12 256.47 108.79C256.47 110.14 257.01 110.95 258.36 110.95C258.6 110.95 259.77 110.95 261.87 110.95L261.87 113.65L243.51 113.65L243.51 110.95C244.97 110.95 245.78 110.95 245.94 110.95C248.1 110.95 249.72 109.6 249.72 107.44C249.72 105.37 249.72 88.74 249.72 86.66C249.72 81.26 248.1 79.64 243.51 82.07C243.51 81.78 243.51 79.47 243.51 79.18C246.48 78.29 251.88 75.59 254.85 73.7C254.92 73.7 255.28 73.7 255.93 73.7L255.93 80.96ZM313.3 111.47C313.6 111.22 315.08 109.97 317.75 107.71L316.67 105.82C315.48 106.46 314.82 106.81 314.69 106.88C311.72 108.46 309.39 108.79 306.42 107.44C303.89 106.29 302.37 102.32 302.37 100.16C302.37 98.7 302.37 91.41 302.37 78.3L314.78 78.29L316.13 74.51L302.37 74.51L302.37 62.09C301.56 62.09 301.11 62.09 301.02 62.09C297.78 68.03 292.92 73.7 286.98 77.21C286.98 77.28 286.98 77.64 286.98 78.29L295.62 78.29C295.62 91.41 295.62 98.7 295.62 100.16C295.62 105.28 297.51 109.06 300.48 111.22C303.29 113.27 305.07 113.65 308.04 113.65C310.47 113.65 311.04 113.38 313.3 111.47ZM346.55 78.38C348.24 81.01 348.26 83.28 348.26 84.77C348.26 86.82 348.26 103.23 348.26 105.28C348.26 107.71 350.02 108.5 352.56 107.64C352.69 107.59 353.32 107.35 354.47 106.9L354.47 109.6C348.8 112.08 345.65 113.46 345.02 113.73C343.92 114.22 343.17 113.11 342.65 111.04C342.61 110.91 342.41 110.25 342.05 109.06C341.11 109.8 340.58 110.21 340.48 110.29C338.25 112.03 335.3 113.65 330.98 113.65C326.91 113.67 324.23 113.11 321.58 108.88C320.34 106.44 320.21 103.15 321.25 100.78C322.47 98.04 324.87 96.63 334.96 92.73C335.42 92.56 337.69 91.7 341.78 90.17C341.78 89.03 341.78 88.4 341.78 88.28C341.78 81.26 339.89 79.1 337.46 77.75C335.51 76.66 332.91 76.94 330.44 78.56C328.4 79.89 327.78 82.15 328.83 84.46C329.64 86.25 329.36 85.69 329.36 85.74C328.81 86.04 324.37 88.38 323.82 88.67C323.82 88.67 322.86 87.03 322.59 86.13C321.31 81.96 322.95 79.6 329.21 76.16C332.48 74.36 334.41 73.7 336.65 73.7C340.97 73.7 344.75 75.59 346.55 78.38ZM331.19 97.76C329.83 98.45 328.26 99.69 327.74 100.7C327.07 102.01 327.18 104.4 328.01 105.82C328.8 107.16 329.74 108.25 330.98 108.79C331.43 108.99 332.91 109.33 333.95 109.33C336.06 109.35 338.28 108.46 340.55 106.58C340.63 106.51 341.04 106.17 341.78 105.55L341.78 93.14C335.86 95.64 332.33 97.18 331.19 97.76ZM369.59 80.96C370.7 79.91 371.32 79.33 371.44 79.21C375.47 75.41 379.31 73.7 382.28 73.7C389.02 73.7 395.23 79.64 394.96 88.01C394.96 89.95 394.96 105.5 394.96 107.44C394.96 109.6 395.5 110.95 397.66 110.95C397.9 110.95 399.07 110.95 401.17 110.95L401.17 113.65L382.55 113.65L382.55 110.95C384.17 110.95 385.07 110.95 385.25 110.95C387.4 110.95 388.21 109.6 388.21 107.44C388.21 105.5 388.21 89.95 388.21 88.01C388.21 83.96 386.73 81.93 385.52 80.72C383.9 79.1 381.93 78.64 379.04 78.83C376.79 78.97 374.49 80.16 371.85 82.3C371.73 82.39 371.16 82.85 370.13 83.69C370.13 98.75 370.13 107.12 370.13 108.79C370.13 110.14 370.67 110.95 372.02 110.95C372.25 110.95 373.42 110.95 375.53 110.95L375.53 113.65L357.17 113.65L357.17 110.95C358.63 110.95 359.44 110.95 359.6 110.95C361.76 110.95 363.38 109.6 363.38 107.44C363.38 105.37 363.38 88.74 363.38 86.66C363.38 81.26 361.76 79.64 357.17 82.07C357.17 81.78 357.17 79.47 357.17 79.18C360.14 78.29 365.54 75.59 368.51 73.7C368.58 73.7 368.94 73.7 369.59 73.7L369.59 80.96ZM449.77 106.36C446.8 107.71 445.45 107.71 444.43 107.03C442.98 106.04 443.02 104.21 443.02 104.21C443.02 100.25 443.02 80.45 443.02 44.81C442.53 44.81 442.26 44.81 442.21 44.81C438.3 47.29 433.57 49.67 429.52 51.02C429.52 51.32 429.52 53.69 429.52 53.99C431.68 53.18 433.3 52.75 434.65 53.45C435.53 53.94 436 54.53 436 55.88C436 57.23 436 63.96 436 76.07C435.05 75.68 434.52 75.47 434.41 75.43C431.23 74.14 429.59 73.84 425.74 73.85C422.52 73.86 421.84 73.94 419.93 74.58C411.05 77.54 405.37 86.22 405.84 96.09C406.11 101.74 407.74 106.17 411.43 109.33C415.21 112.57 418.45 113.65 422.23 113.65C427.36 113.65 430.33 112.63 434.05 110.11C435.19 109.33 436.27 108.52 436.27 108.52C436.54 111.22 437.2 112.84 438.16 114.19C438.93 113.85 442.8 112.14 449.77 109.06C449.77 107.44 449.77 106.54 449.77 106.36ZM412.6 93C412.01 83.55 417.24 76.94 425.31 76.94C428.71 76.94 431.31 77.87 434.45 80.2C434.55 80.28 435.07 80.66 436 81.35L435.86 105.62C434.82 106.24 434.25 106.59 434.13 106.66C431.19 108.44 429.77 108.86 426.28 108.98C423.76 109.06 422.91 108.99 421.78 108.58C416.74 106.78 413.07 100.56 412.6 93ZM487.56 109.33C487.56 109.06 487.56 106.9 487.56 106.64C484.59 108.79 479.89 110.14 475.68 110.14C471.12 110.15 467.58 108.79 465.15 106.1C461.57 102.11 460.57 98.81 459.95 90.71C462.79 90.71 485.53 90.71 488.37 90.71C488.37 90.71 488.37 86.66 486.75 82.88C485.64 80.29 484.59 78.29 481.62 76.4C478.84 74.63 475.09 73.88 471.9 73.86C468.59 73.84 468.08 73.9 466.28 74.56C457.87 77.63 452.15 86.33 452.86 94.98C453.53 103.36 458.43 110.07 465.81 112.76C469.08 113.96 475.25 114.19 478.79 113.25C481.03 112.65 484.05 111.49 487.56 109.33ZM470.82 76.94C474.06 76.94 476.22 77.75 478.38 79.91C480 81.53 480.81 82.88 481.16 87.47C479.04 87.47 462.07 87.47 459.95 87.47C460.3 84.23 461.38 81.8 463.26 79.91C465.15 78.02 467.31 76.94 470.82 76.94ZM504.3 82.61C505.72 80.16 507 78.56 509.43 76.13C511.3 74.25 513.75 73.7 515.64 73.7C516.99 73.7 520.5 74.78 520.5 74.78C520.5 75.32 520.5 78.02 520.5 82.88C519.69 82.88 519.24 82.88 519.15 82.88C518.61 80.72 516.72 79.64 514.02 79.64C510.51 79.64 508.21 81.06 506.8 83.18C505.38 85.31 504.84 86.39 504.84 90.98C504.84 92.76 504.84 107.01 504.84 108.79C504.84 110.14 505.38 110.95 506.73 110.95C506.96 110.95 508.13 110.95 510.24 110.95L510.24 113.65L491.88 113.65L491.88 110.95C493.34 110.95 494.15 110.95 494.31 110.95C496.47 110.95 498.09 109.6 498.09 107.44C498.09 105.37 498.09 88.74 498.09 86.66C498.09 80.72 495.93 80.99 492.15 82.61C492.15 82.34 492.15 80.18 492.15 79.91C495.66 78.56 499.98 76.67 503.22 73.7C503.29 73.7 503.65 73.7 504.3 73.7C504.3 79.04 504.3 82.01 504.3 82.61Z" id="bDH3Oi4LY"></path></defs><g><g><g><g><use xlink:href="#cwCHaSsdd" opacity="1" fill="#ea1d25" fill-opacity="1"></use></g><g><use xlink:href="#bDH3Oi4LY" opacity="1" fill="#ffffff" fill-opacity="1"></use><g><use xlink:href="#bDH3Oi4LY" opacity="1" fill-opacity="0" stroke="#000000" stroke-width="1" stroke-opacity="0"></use></g></g></g></g></g></svg>