<?xml version="1.0" encoding="UTF-8"?>
<svg id="Camada_2" data-name="Camada 2" xmlns="http://www.w3.org/2000/svg" viewBox="0 0 105.76 105.76">
  <defs>
    <style>
      .cls-1 {
        fill: #e6e6e6;
      }

      .cls-1, .cls-2, .cls-3 {
        stroke-width: 0px;
      }

      .cls-2 {
        fill: #b3b3b3;
      }

      .cls-3 {
        fill: #fff;
      }
    </style>
  </defs>
  <g id="Capa_2" data-name="Capa 2">
    <g>
      <circle class="cls-1" cx="52.88" cy="52.88" r="52.88"/>
      <g>
        <path class="cls-2" d="M67.33,45.19h-3.4c-1.25,0-2.37-.67-2.82-1.83l-.3-.82c-.51-1.31-1.76-2.22-3.17-2.22h-10.01c-1.35,0-2.58.9-3.12,2.14l-.44.96c-.48,1.11-1.57,1.77-2.78,1.77h-3.86c-2.51,0-4.55,2.24-4.55,4.75v17.22c0,2.51,2.04,4.35,4.55,4.35h29.57c2.69,0,4.88-1.98,4.88-4.67v-16.9c0-2.51-2.04-4.75-4.55-4.75ZM52.38,68.15c-5.3,0-9.59-4.29-9.59-9.59s4.29-9.59,9.59-9.59,9.59,4.29,9.59,9.59-4.29,9.59-9.59,9.59Z"/>
        <circle class="cls-2" cx="52.38" cy="58.56" r="7.47"/>
      </g>
      <path class="cls-3" d="M31.24,38.73h-2.64v-1.34h2.64v-3.03h1.28v3.03h2.64v1.34h-2.64v3.02h-1.28v-3.02Z"/>
    </g>
  </g>
</svg>