<?xml version="1.0" encoding="UTF-8"?>
<svg id="Camada_2" data-name="Camada 2" xmlns="http://www.w3.org/2000/svg" viewBox="0 0 661.24 142.44">
  <defs>
    <style>
      .cls-1 {
        fill: #e6e6e6;
      }

      .cls-1, .cls-2, .cls-3 {
        stroke-width: 0px;
      }

      .cls-2 {
        fill: #b3b3b3;
      }

      .cls-3 {
        fill: #fff;
      }
    </style>
  </defs>
  <g id="Capa_2" data-name="Capa 2">
    <g>
      <rect class="cls-1" width="661.24" height="142.44"/>
      <g>
        <path class="cls-2" d="M339.33,54.79h-3.49c-1.28,0-2.43-.68-2.9-1.88l-.31-.84c-.52-1.34-1.81-2.28-3.25-2.28h-10.27c-1.39,0-2.64.93-3.2,2.2l-.45.98c-.49,1.13-1.61,1.82-2.85,1.82h-3.96c-2.58,0-4.67,2.3-4.67,4.87v17.67c0,2.58,2.09,4.46,4.67,4.46h30.33c2.76,0,5-2.03,5-4.79v-17.33c0-2.58-2.09-4.87-4.67-4.87ZM324,78.33c-5.43,0-9.83-4.4-9.83-9.83s4.4-9.83,9.83-9.83,9.83,4.4,9.83,9.83-4.4,9.83-9.83,9.83Z"/>
        <circle class="cls-2" cx="324" cy="68.5" r="7.67"/>
      </g>
      <path class="cls-3" d="M303.36,49h-2.64v-1.34h2.64v-3.03h1.28v3.03h2.64v1.34h-2.64v3.02h-1.28v-3.02Z"/>
    </g>
  </g>
</svg>